<mxfile host="app.diagrams.net" modified="2022-01-20T23:35:54.949Z" agent="5.0 (Windows NT 10.0; Win64; x64) AppleWebKit/537.36 (KHTML, like Gecko) Chrome/97.0.4692.71 Safari/537.36" etag="gzN5_cJbgnr5h3d0NtzE" version="16.4.3" type="github">
  <diagram id="C5RBs43oDa-KdzZeNtuy" name="Page-1">
    <mxGraphModel dx="680" dy="363" grid="1" gridSize="10" guides="1" tooltips="1" connect="1" arrows="1" fold="1" page="1" pageScale="1" pageWidth="827" pageHeight="1169" math="0" shadow="0">
      <root>
        <mxCell id="WIyWlLk6GJQsqaUBKTNV-0" />
        <mxCell id="WIyWlLk6GJQsqaUBKTNV-1" parent="WIyWlLk6GJQsqaUBKTNV-0" />
        <mxCell id="FK070Sc5RL6ch2lohKTQ-20" value="" style="edgeStyle=orthogonalEdgeStyle;rounded=0;orthogonalLoop=1;jettySize=auto;html=1;" edge="1" parent="WIyWlLk6GJQsqaUBKTNV-1" source="FK070Sc5RL6ch2lohKTQ-17" target="FK070Sc5RL6ch2lohKTQ-19">
          <mxGeometry relative="1" as="geometry" />
        </mxCell>
        <mxCell id="FK070Sc5RL6ch2lohKTQ-17" value="" style="whiteSpace=wrap;html=1;aspect=fixed;" vertex="1" parent="WIyWlLk6GJQsqaUBKTNV-1">
          <mxGeometry x="294" y="617" width="240" height="240" as="geometry" />
        </mxCell>
        <mxCell id="FK070Sc5RL6ch2lohKTQ-14" value="" style="edgeStyle=orthogonalEdgeStyle;rounded=0;orthogonalLoop=1;jettySize=auto;html=1;" edge="1" parent="WIyWlLk6GJQsqaUBKTNV-1" source="FK070Sc5RL6ch2lohKTQ-0" target="FK070Sc5RL6ch2lohKTQ-3">
          <mxGeometry relative="1" as="geometry" />
        </mxCell>
        <mxCell id="FK070Sc5RL6ch2lohKTQ-0" value="User input: binary code" style="rounded=1;whiteSpace=wrap;html=1;" vertex="1" parent="WIyWlLk6GJQsqaUBKTNV-1">
          <mxGeometry x="354" y="80" width="120" height="60" as="geometry" />
        </mxCell>
        <mxCell id="FK070Sc5RL6ch2lohKTQ-12" value="" style="edgeStyle=orthogonalEdgeStyle;rounded=0;orthogonalLoop=1;jettySize=auto;html=1;" edge="1" parent="WIyWlLk6GJQsqaUBKTNV-1" source="FK070Sc5RL6ch2lohKTQ-3" target="FK070Sc5RL6ch2lohKTQ-5">
          <mxGeometry relative="1" as="geometry" />
        </mxCell>
        <mxCell id="FK070Sc5RL6ch2lohKTQ-3" value="Is number 8 digits?" style="rhombus;whiteSpace=wrap;html=1;" vertex="1" parent="WIyWlLk6GJQsqaUBKTNV-1">
          <mxGeometry x="354" y="190" width="120" height="80" as="geometry" />
        </mxCell>
        <mxCell id="FK070Sc5RL6ch2lohKTQ-22" value="" style="edgeStyle=orthogonalEdgeStyle;rounded=0;orthogonalLoop=1;jettySize=auto;html=1;" edge="1" parent="WIyWlLk6GJQsqaUBKTNV-1" source="FK070Sc5RL6ch2lohKTQ-5" target="FK070Sc5RL6ch2lohKTQ-21">
          <mxGeometry relative="1" as="geometry" />
        </mxCell>
        <mxCell id="FK070Sc5RL6ch2lohKTQ-5" value="Set answer = 0" style="rounded=1;whiteSpace=wrap;html=1;" vertex="1" parent="WIyWlLk6GJQsqaUBKTNV-1">
          <mxGeometry x="354" y="330" width="120" height="60" as="geometry" />
        </mxCell>
        <mxCell id="FK070Sc5RL6ch2lohKTQ-18" value="" style="edgeStyle=orthogonalEdgeStyle;rounded=0;orthogonalLoop=1;jettySize=auto;html=1;entryX=0.5;entryY=0;entryDx=0;entryDy=0;" edge="1" parent="WIyWlLk6GJQsqaUBKTNV-1" source="FK070Sc5RL6ch2lohKTQ-6" target="FK070Sc5RL6ch2lohKTQ-17">
          <mxGeometry relative="1" as="geometry">
            <mxPoint x="415" y="520" as="targetPoint" />
          </mxGeometry>
        </mxCell>
        <mxCell id="FK070Sc5RL6ch2lohKTQ-6" value="For each digit in number" style="rounded=1;whiteSpace=wrap;html=1;" vertex="1" parent="WIyWlLk6GJQsqaUBKTNV-1">
          <mxGeometry x="354" y="510" width="120" height="60" as="geometry" />
        </mxCell>
        <mxCell id="FK070Sc5RL6ch2lohKTQ-15" value="Yes" style="edgeStyle=orthogonalEdgeStyle;rounded=0;orthogonalLoop=1;jettySize=auto;html=1;" edge="1" parent="WIyWlLk6GJQsqaUBKTNV-1" source="FK070Sc5RL6ch2lohKTQ-8" target="FK070Sc5RL6ch2lohKTQ-9">
          <mxGeometry relative="1" as="geometry" />
        </mxCell>
        <mxCell id="FK070Sc5RL6ch2lohKTQ-8" value="Is digit == 1?" style="rhombus;whiteSpace=wrap;html=1;" vertex="1" parent="WIyWlLk6GJQsqaUBKTNV-1">
          <mxGeometry x="354" y="636" width="122" height="80" as="geometry" />
        </mxCell>
        <mxCell id="FK070Sc5RL6ch2lohKTQ-9" value="answer += 2**(index)" style="rounded=1;whiteSpace=wrap;html=1;" vertex="1" parent="WIyWlLk6GJQsqaUBKTNV-1">
          <mxGeometry x="356" y="771" width="120" height="60" as="geometry" />
        </mxCell>
        <mxCell id="FK070Sc5RL6ch2lohKTQ-19" value="Print answer" style="rounded=1;whiteSpace=wrap;html=1;" vertex="1" parent="WIyWlLk6GJQsqaUBKTNV-1">
          <mxGeometry x="354" y="917" width="120" height="60" as="geometry" />
        </mxCell>
        <mxCell id="FK070Sc5RL6ch2lohKTQ-23" value="" style="edgeStyle=orthogonalEdgeStyle;rounded=0;orthogonalLoop=1;jettySize=auto;html=1;" edge="1" parent="WIyWlLk6GJQsqaUBKTNV-1" source="FK070Sc5RL6ch2lohKTQ-21" target="FK070Sc5RL6ch2lohKTQ-6">
          <mxGeometry relative="1" as="geometry" />
        </mxCell>
        <mxCell id="FK070Sc5RL6ch2lohKTQ-21" value="Reverse number" style="rounded=1;whiteSpace=wrap;html=1;" vertex="1" parent="WIyWlLk6GJQsqaUBKTNV-1">
          <mxGeometry x="354" y="420" width="120" height="60" as="geometry" />
        </mxCell>
      </root>
    </mxGraphModel>
  </diagram>
</mxfile>
